<svg id="visual" viewBox="0 0 1920 240" width="1920" height="240" xmlns="http://www.w3.org/2000/svg" xmlns:xlink="http://www.w3.org/1999/xlink" version="1.1"><path d="M0 54L45.7 56.3C91.3 58.7 182.7 63.3 274.2 59.8C365.7 56.3 457.3 44.7 548.8 38.7C640.3 32.7 731.7 32.3 823 40C914.3 47.7 1005.7 63.3 1097 67.3C1188.3 71.3 1279.7 63.7 1371.2 58.3C1462.7 53 1554.3 50 1645.8 51.5C1737.3 53 1828.7 59 1874.3 62L1920 65L1920 0L1874.3 0C1828.7 0 1737.3 0 1645.8 0C1554.3 0 1462.7 0 1371.2 0C1279.7 0 1188.3 0 1097 0C1005.7 0 914.3 0 823 0C731.7 0 640.3 0 548.8 0C457.3 0 365.7 0 274.2 0C182.7 0 91.3 0 45.7 0L0 0Z" fill="#e5e7eb" stroke-linecap="round" stroke-linejoin="miter"></path></svg>